# xmcd CD database file
#
# Track frame offsets:
#	180
#	13198
#	26427
#	41136
#	55848
#	68435
#	81858
#	95449
#	100757
#	115951
#	130292
#	144176
#	154630
#	165811
#	176517
#	186775
#	200648
#	214215
#
# Disc length: 3088 seconds
#
# Revision: 0
# Processed by: cddbd v1.5.1PL0 Copyright (c) Steve Scherf et al.
# Submitted via: CDex 1.51
#
DISCID=ea0c0e12
DTITLE=Billie Holliday - Volume 10: 1940-1941
DYEAR=1900
DGENRE=Jazz
TTITLE0=Billie Holliday with Benny Carter and His Allstar Orchestra - St Louis Blues (take 1) 15 Oct 1940
TTITLE1=Billie Holliday with Benny Carter and His Allstar Orchestra - St Louis Blues (take 2) 15 Oct 1940
TTITLE2=Billie Holliday with Benny Carter and His Allstar Orchestra - Loveless Love (take 1) 15 Oct 1941
TTITLE3=Billie Holliday with Benny Carter and His Allstar Orchestra - Loveless Love (take 2) 15 Oct 1941
TTITLE4=Billie Holliday with Oran "Hot Lips" Page (tp) Charlie Barnett (ss) Coleman hawkins, Lester Young (ts) Teddy Wilson (p) WNEW jam session 19 Oct 1941 - The Man I Love
TTITLE5=Bille Holliday with Eddie Heywood and his Orchestra - Let's Do it (take 1)
TTITLE6=Bille Holliday with Eddie Heywood and his Orchestra - Let's Do it (take 2)
TTITLE7=Bille Holliday with Eddie Heywood and his Orchestra - Let's Do it (take 3)
TTITLE8=Bille Holliday with Eddie Heywood and his Orchestra - Georgia On My Mind (take 1)
TTITLE9=Bille Holliday with Eddie Heywood and his Orchestra - Georgia On My Mind (take 2)
TTITLE10=Bille Holliday with Eddie Heywood and his Orchestra - Georgia On My Mind (take 3)
TTITLE11=Bille Holliday with Eddie Heywood and his Orchestra - Romance In the Dark (take 1)
TTITLE12=Bille Holliday with Eddie Heywood and his Orchestra - Romance In the Dark (take 2)
TTITLE13=Bille Holliday with Eddie Heywood and his Orchestra - Romance In the Dark (take 3)
TTITLE14=Bille Holliday with Eddie Heywood and his Orchestra - Romance In the Dark (take 4)
TTITLE15=Bille Holliday with Eddie Heywood and his Orchestra - All of Me (take 1)
TTITLE16=Bille Holliday with Eddie Heywood and his Orchestra - All of Me (take 2)
TTITLE17=Bille Holliday with Eddie Heywood and his Orchestra - All of Me (take 3)
EXTD=
EXTT0=
EXTT1=
EXTT2=
EXTT3=
EXTT4=
EXTT5=
EXTT6=
EXTT7=
EXTT8=
EXTT9=
EXTT10=
EXTT11=
EXTT12=
EXTT13=
EXTT14=
EXTT15=
EXTT16=
EXTT17=
PLAYORDER=
